# xmcd CD database file
#
# Track frame offsets:
#	150
#	4687
#	15510
#	34545
#	53945
#	67687
#	88852
#	110220
#	130762
#	151082
#
# Disc length: 2273 seconds
#
# Revision: 0
# Processed by: cddbd v1.5.1PL0 Copyright (c) Steve Scherf et al.
# Submitted via: CDex 1.51
#
DISCID=7008df0a
DTITLE=SONOMI - S.O.N
DYEAR=2005
DGENRE=Pop
TTITLE0=Intro
TTITLE1=Sing it1
TTITLE2=ひとりじゃないのよ
TTITLE3=You can see ?
TTITLE4=PARTY HARD
TTITLE5=Missin' my days
TTITLE6=トラベル
TTITLE7=遠距離 feat. MONOPOLY
TTITLE8=晴天 feat. CUEZERO , KREVA
TTITLE9=赤い光
EXTD=YEAR: 2005
EXTT0=
EXTT1=
EXTT2=
EXTT3=
EXTT4=
EXTT5=
EXTT6=
EXTT7=
EXTT8=
EXTT9=
PLAYORDER=
